Coordinates
version=1
nRows=13
nColumns=36
inDegrees=yes

Units are S.I. units (second, meters, Newtons, ...)
If the header above contains a line with 'inDegrees', this indicates whether rotational values are in degrees (yes) or radians (no).

endheader
time	pelvis_tilt	pelvis_list	pelvis_rotation	pelvis_tx	pelvis_ty	pelvis_tz	hip_flexion_r	hip_adduction_r	hip_rotation_r	knee_angle_r	knee_angle_r_beta	ankle_angle_r	subtalar_angle_r	mtp_angle_r	hip_flexion_l	hip_adduction_l	hip_rotation_l	knee_angle_l	knee_angle_l_beta	ankle_angle_l	subtalar_angle_l	mtp_angle_l	lumbar_extension	lumbar_bending	lumbar_rotation	arm_flex_r	arm_add_r	arm_rot_r	elbow_flex_r	pro_sup_r	arm_flex_l	arm_add_l	arm_rot_l	elbow_flex_l	pro_sup_l
      1.21250000	     -8.79766311	     -1.19199934	     -1.75389900	     -0.28640238	      1.32762741	     -0.05220598	     12.03594019	     -0.73850480	     -8.33694516	     38.57347338	      0.67323411	    -47.77398424	     -2.47097367	     -7.49999987	     14.08553678	     -3.24455489	      1.23946116	     42.95918178	      0.74977917	    -42.57180119	      6.06711809	     -7.49999987	     -4.37414945	      0.90614284	      3.57695445	    -28.71759489	    -14.18764240	      7.03473502	     65.66191208	     74.04131492	    -43.70335304	    -13.36281907	     -1.03618571	     82.56163806	     78.08738492
      1.21666670	     -8.59980271	     -1.11608610	     -1.77557872	     -0.28037272	      1.32505409	     -0.05298189	     12.47353312	     -0.93500680	     -8.61086327	     38.84509519	      0.67797481	    -47.00970193	     -2.36425444	     -7.49999987	     14.65785754	     -3.35160422	      0.93174196	     43.78577237	      0.76420589	    -41.43630825	      5.74856583	     -7.49999987	     -4.44786392	      0.73458577	      3.19390280	    -27.89354993	    -14.75907010	      8.43002939	     64.66130601	     75.27671793	    -44.23527048	    -12.87592906	     -1.76770720	     82.57938721	     78.56006860
      1.22083330	     -8.35474704	     -1.13123136	     -1.64894056	     -0.27638445	      1.32826940	     -0.05420656	     12.78819032	     -1.01224286	     -8.52145056	     38.60694201	      0.67381825	    -46.47448084	     -1.50026594	     -7.49999987	     15.23352713	     -3.44376875	      1.08024428	     43.88755432	      0.76598232	    -39.87581382	      5.24817840	     -7.49999987	     -4.92130484	      0.83433815	      3.27026012	    -27.75426793	    -14.82758279	      8.36192027	     64.42564681	     74.39109461	    -43.66625145	    -13.17494089	     -1.41392493	     82.03613877	     77.45087882
      1.22500000	     -8.38848227	     -1.05255782	     -1.46697057	     -0.27097047	      1.32175560	     -0.05203216	     13.40280344	     -1.04204300	     -8.41381300	     38.88266236	      0.67863048	    -45.08197171	     -0.49697425	     -7.49999987	     16.04819129	     -3.49831529	      0.89672798	     44.92984445	      0.78417372	    -39.51390692	      5.47582026	     -7.49999987	     -4.87651020	      0.69054757	      3.35376491	    -27.84424763	    -14.87754337	      8.52653415	     64.18604631	     72.80046634	    -43.62107723	    -13.54507572	     -1.16821406	     81.98546227	     75.45004358
      1.22916670	     -8.26440457	     -1.14486292	     -1.50363847	     -0.26454402	      1.32073511	     -0.05142727	     13.79280222	     -0.91265075	     -8.35057113	     39.27330098	      0.68544841	    -43.79219414	      0.08814665	     -7.49999987	     16.23372415	     -3.62812843	      0.75521397	     45.03081620	      0.78593601	    -38.72889275	      6.90441672	     -7.49999987	     -5.04990914	      0.78416419	      3.43659872	    -27.79192559	    -15.05564195	      8.65911841	     64.06515126	     71.94600512	    -43.54709860	    -13.77245415	     -1.00976303	     81.76832933	     74.23793409
      1.23333330	     -8.18409423	     -1.35576925	     -1.39677133	     -0.25968422	      1.31959260	     -0.05229950	     14.25322350	     -0.78631521	     -8.51088120	     39.29078594	      0.68575358	    -43.06555940	      1.08390563	     -7.49999987	     16.56729831	     -3.91046942	      0.41625803	     44.82685709	      0.78237625	    -39.43588181	      7.18457401	     -7.49999987	     -5.22733105	      0.92973910	      3.27107132	    -27.59171378	    -15.25845461	      9.09708530	     63.71304412	     71.83343222	    -43.41622861	    -14.03621928	     -0.70252085	     81.33168375	     73.64442735
      1.23750000	     -8.23193756	     -1.46200081	     -1.23040248	     -0.25550795	      1.32127848	     -0.05121604	     14.39544253	     -0.65497919	     -8.60960176	     38.55200911	      0.67285949	    -42.65447692	      1.56143036	     -7.49999987	     16.69384072	     -4.02601057	      0.19776860	     43.94888389	      0.76705273	    -40.48844668	      7.65339475	     -7.49999987	     -5.26105560	      1.03429049	      3.23515460	    -27.69641624	    -15.34770562	      9.10397675	     63.65453729	     71.98993648	    -43.51285533	    -14.14053597	     -0.81000675	     81.25128245	     73.74405214
      1.24166670	     -7.87913296	     -1.53490049	     -1.01840778	     -0.25335698	      1.32094291	     -0.05041932	     14.50643088	     -0.57572270	     -8.66842932	     38.12337898	      0.66537849	    -42.62409882	      2.22207836	     -7.49999987	     16.68534651	     -4.24884380	      0.04827549	     43.21047126	      0.75416499	    -41.66883248	      7.08580383	     -7.49999987	     -6.05535490	      1.07646060	      2.89580551	    -26.97148659	    -15.47673327	      9.39191529	     62.89641906	     75.66778301	    -43.33055013	    -13.99296974	     -1.33280903	     80.88625163	     75.93346623
      1.24583330	     -7.67926263	     -1.34079850	     -0.75495737	     -0.24703882	      1.31555026	     -0.05020678	     14.49567560	     -0.74908427	     -8.62848305	     37.70859637	      0.65813916	    -41.50111296	      3.05555620	     -7.49999987	     17.16623864	     -4.24057213	     -0.14210613	     43.60238041	      0.76100510	    -42.07919129	      5.87052031	     -7.49999987	     -6.42586012	      0.83187103	      2.88011162	    -26.67796677	    -15.28539076	      9.41798166	     62.38522114	     75.53943914	    -42.89108655	    -14.33350923	     -1.40913288	     80.52859074	     75.77820870
      1.25000000	     -7.50408447	     -1.29176679	     -0.72794280	     -0.24115729	      1.31184424	     -0.05110996	     14.79002456	     -0.94686764	     -9.11136854	     37.53502186	      0.65510972	    -41.08535550	      3.15811872	     -7.49999987	     17.42912593	     -4.35372775	     -0.37545888	     43.42896451	      0.75797842	    -41.31553690	      5.14863817	     -7.49999987	     -6.81411375	      0.87431154	      3.05478950	    -26.32379433	    -15.31881785	      9.55295552	     61.65934260	     73.95761057	    -42.35181607	    -14.49031876	     -1.20644153	     79.82790725	     74.07520312
      1.25416670	     -7.31027038	     -1.26945500	     -0.48770003	     -0.23398260	      1.31010117	     -0.05161003	     14.93083236	     -1.17328016	     -9.40171124	     36.96431113	      0.64514893	    -40.79136754	      4.07303619	     -7.49999987	     17.84919244	     -4.42899121	     -0.45856945	     43.44723628	      0.75829732	    -41.30842986	      3.84284047	     -7.49999987	     -7.07484092	      0.88784438	      2.98831640	    -26.06230784	    -15.38395622	      9.78915573	     61.00208410	     72.59947762	    -41.82705796	    -14.75115155	     -1.05015644	     79.13948563	     72.57216161
      1.25833330	     -7.13155300	     -1.38845403	     -0.35910120	     -0.23024256	      1.30652803	     -0.05126629	     15.31277740	     -1.16099684	    -10.12051197	     36.70237179	      0.64057723	    -39.98670549	      3.70087751	     -7.49999987	     17.99647308	     -4.63510199	     -0.95247109	     43.04093328	      0.75120600	    -41.39324903	      3.91263130	     -7.49999987	     -7.36477368	      1.06488051	      3.00118993	    -25.76258816	    -15.58025624	     10.06490861	     60.44226675	     71.51530062	    -41.45488844	    -14.92978255	     -0.84441829	     78.68434180	     71.36319612
      1.26250000	     -6.85454673	     -1.29140998	     -0.13714403	     -0.22400389	      1.30427434	     -0.05166337	     15.30531323	     -1.38902831	    -10.83957786	     35.99484356	      0.62822853	    -39.94836629	      3.92390871	     -7.49999987	     18.19607871	     -4.72392929	     -1.44172594	     42.53318247	      0.74234408	    -40.45864905	      2.20415194	     -7.49999987	     -7.72922907	      0.95406450	      2.90050984	    -25.39065741	    -15.63533640	     10.49097936	     59.53662245	     71.77521809	    -41.10002524	    -15.20456633	     -0.88480535	     78.17651857	     71.43884274
